<svg width="148" height="89" viewBox="0 0 148 89" fill="none" xmlns="http://www.w3.org/2000/svg">
<path d="M35.2 40.9C35.4 41.14 35.54 41.3333 35.62 41.48C35.7 41.6267 35.74 41.7667 35.74 41.9C35.74 42.06 35.6333 42.2467 35.42 42.46C35.22 42.6733 35.02 42.78 34.82 42.78C34.5533 42.78 34.34 42.74 34.18 42.66C34.02 42.58 33.8867 42.4533 33.78 42.28C33.5667 41.96 33.3067 41.6867 33 41.46C32.6933 41.22 32.2133 41.1 31.56 41.1C31 41.1 30.36 41.2267 29.64 41.48C28.9333 41.7333 28.4267 42.0467 28.12 42.42C27.8533 42.7533 27.62 43.26 27.42 43.94C27.2333 44.62 27.14 45.28 27.14 45.92C27.14 46.6933 27.3067 47.4067 27.64 48.06C27.9867 48.7 28.48 49.2133 29.12 49.6C29.7733 49.9867 30.5533 50.18 31.46 50.18C31.9533 50.18 32.46 50.0867 32.98 49.9C33.5133 49.7 33.9733 49.38 34.36 48.94H34.34C34.58 48.6867 34.88 48.56 35.24 48.56C35.4533 48.56 35.6533 48.6533 35.84 48.84C36.04 49.0267 36.14 49.2133 36.14 49.4C36.14 49.6 36.1067 49.78 36.04 49.94C35.9867 50.0867 35.88 50.2533 35.72 50.44C35.1733 51.0533 34.5267 51.4733 33.78 51.7C33.0333 51.9267 32.14 52.04 31.1 52.04C30.18 52.04 29.2467 51.82 28.3 51.38C27.3667 50.94 26.6467 50.4067 26.14 49.78C25.8733 49.3933 25.6133 48.84 25.36 48.12C25.12 47.3867 25 46.7933 25 46.34C25 45.18 25.1733 44.08 25.52 43.04C25.88 41.9867 26.4133 41.1467 27.12 40.52C27.5867 40.0933 28.26 39.7733 29.14 39.56C30.02 39.3467 30.8267 39.24 31.56 39.24C32.4533 39.24 33.1533 39.3667 33.66 39.62C34.18 39.86 34.6933 40.2867 35.2 40.9ZM48.3916 50.12C48.5916 50.12 48.7516 50.2067 48.8716 50.38C49.0049 50.5533 49.0716 50.74 49.0716 50.94C49.0716 51.2867 48.9382 51.5533 48.6716 51.74C48.4182 51.9133 48.0849 52 47.6716 52C47.0582 52 46.5649 51.8933 46.1916 51.68C45.8182 51.4667 45.4849 51.0667 45.1916 50.48C45.0982 50.2667 44.9849 49.92 44.8516 49.44C44.7316 48.96 44.6049 48.58 44.4716 48.3C44.3516 48.0067 44.1449 47.76 43.8516 47.56C43.5716 47.36 43.1849 47.2533 42.6916 47.24L42.2516 47.26C41.7982 47.2867 41.4582 47.3 41.2316 47.3C40.9649 47.3 40.7116 47.28 40.4716 47.24C40.4982 49 40.5116 50.3467 40.5116 51.28C40.5116 51.52 40.3916 51.72 40.1516 51.88C39.9249 52.04 39.6649 52.12 39.3716 52.12C39.0249 52.12 38.7516 51.9867 38.5516 51.72C38.3916 51.4 38.3116 50.9267 38.3116 50.3C38.3116 50.0867 38.3249 49.78 38.3516 49.38L38.3716 48.5C38.3716 47.6867 38.4049 46.8133 38.4716 45.88C38.5249 44.8133 38.5516 44.0333 38.5516 43.54C38.5516 43.1267 38.5116 42.5733 38.4316 41.88C38.4182 41.7467 38.3982 41.5333 38.3716 41.24C38.3449 40.9333 38.3316 40.66 38.3316 40.42C38.3316 40.2467 38.4049 40.0867 38.5516 39.94C38.6982 39.7933 38.8449 39.7 38.9916 39.66C40.0849 39.4867 41.1649 39.4 42.2316 39.4C43.9649 39.4 45.3849 39.7267 46.4916 40.38C47.5982 41.0333 48.1516 42.0333 48.1516 43.38C48.1516 43.78 48.0449 44.2 47.8316 44.64C47.6316 45.0667 47.3782 45.4 47.0716 45.64C46.5516 46.0933 45.9916 46.3867 45.3916 46.52C45.4182 46.5467 45.5649 46.68 45.8316 46.92C46.0982 47.16 46.2782 47.4133 46.3716 47.68L46.6316 48.48C46.8582 49.1333 47.0382 49.5867 47.1716 49.84C47.3049 50.08 47.4782 50.2 47.6916 50.2C47.8916 50.2 48.0116 50.1867 48.0516 50.16C48.1049 50.1333 48.2182 50.12 48.3916 50.12ZM40.4516 45.54C40.8516 45.5667 41.1316 45.58 41.2916 45.58C41.5316 45.58 41.8649 45.5667 42.2916 45.54L43.2316 45.52C43.6449 45.52 44.0716 45.4267 44.5116 45.24C44.9516 45.0533 45.3182 44.7933 45.6116 44.46C45.9049 44.1133 46.0516 43.7267 46.0516 43.3C46.0516 42.54 45.7449 41.9867 45.1316 41.64C44.5182 41.2933 43.5649 41.12 42.2716 41.12C41.7782 41.12 41.1982 41.1867 40.5316 41.32C40.5582 41.8 40.5716 42.1467 40.5716 42.36C40.5716 42.6133 40.5582 42.9933 40.5316 43.5L40.5116 44.08C40.4716 44.64 40.4516 45.1267 40.4516 45.54ZM53.9139 40.96C53.8739 41.8133 53.8539 42.6333 53.8539 43.42C53.8539 44.2333 53.9072 45.4267 54.0139 47C54.0272 47.24 54.0539 47.7267 54.0939 48.46C54.1339 49.18 54.1539 49.84 54.1539 50.44C54.2872 50.4267 54.4272 50.4067 54.5739 50.38C54.7339 50.3533 54.8539 50.34 54.9339 50.34C55.2272 50.34 55.4606 50.4133 55.6339 50.56C55.8072 50.7067 55.8939 50.9333 55.8939 51.24C55.8939 51.44 55.8139 51.5933 55.6539 51.7C55.4939 51.8067 55.2139 51.8867 54.8139 51.94C54.4272 51.98 53.8606 52 53.1139 52C52.2872 52 51.6672 51.9733 51.2539 51.92C50.8406 51.8667 50.5539 51.7667 50.3939 51.62C50.2339 51.46 50.1539 51.2267 50.1539 50.92C50.1539 50.6933 50.2272 50.54 50.3739 50.46C50.5206 50.38 50.7272 50.34 50.9939 50.34L51.4139 50.36L52.0739 50.4L51.9739 48.04C51.8939 46.76 51.8539 45.5867 51.8539 44.52C51.8539 43.9467 51.8739 43.16 51.9139 42.16L51.9539 41.06C51.5006 41.0867 51.1472 41.1 50.8939 41.1C50.6006 41.1 50.4006 41.0467 50.2939 40.94C50.2006 40.8333 50.1539 40.6133 50.1539 40.28C50.1539 39.9067 50.4072 39.6667 50.9139 39.56C51.4339 39.4533 52.2206 39.4 53.2739 39.4C54.0872 39.4 54.6939 39.4267 55.0939 39.48C55.5072 39.5333 55.7139 39.6533 55.7139 39.84C55.7139 40.2933 55.6139 40.5933 55.4139 40.74C55.2272 40.8733 54.8606 40.94 54.3139 40.94L53.9139 40.96ZM67.9148 40.9C68.1148 41.14 68.2548 41.3333 68.3348 41.48C68.4148 41.6267 68.4548 41.7667 68.4548 41.9C68.4548 42.06 68.3482 42.2467 68.1348 42.46C67.9348 42.6733 67.7348 42.78 67.5348 42.78C67.2682 42.78 67.0548 42.74 66.8948 42.66C66.7348 42.58 66.6015 42.4533 66.4948 42.28C66.4148 42.16 66.2282 42.0067 65.9348 41.82C65.6415 41.62 65.3082 41.4533 64.9348 41.32C64.5615 41.1733 64.2148 41.1 63.8948 41.1C63.3748 41.1 62.8348 41.2267 62.2748 41.48C61.7282 41.72 61.2882 42.0333 60.9548 42.42C60.6748 42.7667 60.4215 43.2867 60.1948 43.98C59.9682 44.66 59.8548 45.3067 59.8548 45.92C59.8548 46.6933 60.0215 47.4067 60.3548 48.06C60.7015 48.7 61.1948 49.2133 61.8348 49.6C62.4882 49.9867 63.2682 50.18 64.1748 50.18C64.6682 50.18 65.0882 50.1067 65.4348 49.96C65.7948 49.8133 66.1815 49.6 66.5948 49.32C66.9148 49.12 67.1615 48.9733 67.3348 48.88C67.5215 48.7867 67.7282 48.74 67.9548 48.74C68.1682 48.74 68.3682 48.8333 68.5548 49.02C68.7548 49.2067 68.8548 49.3933 68.8548 49.58C68.8548 49.9267 68.6482 50.2733 68.2348 50.62C67.7282 51.0333 67.2615 51.3467 66.8348 51.56C66.4082 51.76 65.9682 51.8933 65.5148 51.96C65.0748 52.0133 64.5082 52.04 63.8148 52.04C62.8948 52.04 61.9615 51.82 61.0148 51.38C60.0815 50.94 59.3615 50.4067 58.8548 49.78C58.5882 49.3933 58.3282 48.84 58.0748 48.12C57.8348 47.3867 57.7148 46.7933 57.7148 46.34C57.7148 45.2067 57.9082 44.1133 58.2948 43.06C58.6815 42.0067 59.2348 41.16 59.9548 40.52C60.4348 40.08 61.0282 39.76 61.7348 39.56C62.4548 39.3467 63.1482 39.24 63.8148 39.24C64.6682 39.24 65.4015 39.38 66.0148 39.66C66.6415 39.94 67.2748 40.3533 67.9148 40.9ZM81.7864 50.48C81.9197 50.5467 82.0197 50.6333 82.0864 50.74C82.1664 50.8467 82.2064 51 82.2064 51.2C82.2064 51.4533 82.1064 51.66 81.9064 51.82C81.7197 51.9667 81.4997 52.04 81.2464 52.04C80.9531 52.04 80.6197 51.9667 80.2464 51.82C79.4997 51.4867 78.7664 50.8733 78.0464 49.98C77.3397 49.0733 76.4864 47.7733 75.4864 46.08C74.7264 46.6667 73.9531 47.2133 73.1664 47.72C73.1664 48 73.1731 48.3267 73.1864 48.7C73.2131 49.06 73.2264 49.3267 73.2264 49.5C73.2531 50.2733 73.2664 50.7867 73.2664 51.04C73.2664 51.2667 73.1931 51.4867 73.0464 51.7C72.8997 51.9 72.6797 52 72.3864 52C71.9597 52 71.6531 51.9333 71.4664 51.8C71.2797 51.6533 71.1664 51.4467 71.1264 51.18C71.0197 50.5133 70.9664 49.8733 70.9664 49.26C70.9664 48.5667 71.0197 47.5667 71.1264 46.26C71.2331 45.0067 71.2864 44.0667 71.2864 43.44C71.2864 43.2 71.2731 42.8533 71.2464 42.4C71.2331 42.04 71.1931 41.7067 71.1264 41.4C71.0731 40.9733 71.0464 40.6733 71.0464 40.5C71.0464 40.0733 71.1397 39.7667 71.3264 39.58C71.5131 39.3933 71.7997 39.3 72.1864 39.3C72.4797 39.3 72.7197 39.3867 72.9064 39.56C73.1064 39.72 73.2197 39.94 73.2464 40.22C73.3131 41.3533 73.3464 42.2267 73.3464 42.84C73.3331 43.1733 73.3064 43.6533 73.2664 44.28C73.2397 44.8933 73.2131 45.28 73.1864 45.44C73.6397 45.1867 74.5264 44.46 75.8464 43.26C77.1797 42.0467 78.1264 41.0933 78.6864 40.4L78.9464 40.1C79.1597 39.82 79.3397 39.6267 79.4864 39.52C79.6331 39.4133 79.8331 39.36 80.0864 39.36C80.3397 39.36 80.5664 39.4467 80.7664 39.62C80.9797 39.78 81.0864 39.9733 81.0864 40.2C81.0864 40.64 80.8597 41.0867 80.4064 41.54C79.2997 42.6867 78.1931 43.7533 77.0864 44.74C78.6464 47.66 80.2131 49.5733 81.7864 50.48ZM94.1798 47.96C94.1798 48.7067 93.8932 49.42 93.3198 50.1C92.7598 50.7667 92.0465 51.2933 91.1798 51.68C90.8065 51.8 90.3332 51.9 89.7598 51.98C89.1865 52.0467 88.6065 52.0867 88.0198 52.1C86.8732 52.1 85.8065 51.94 84.8198 51.62C84.6465 51.58 84.4465 51.4667 84.2198 51.28C83.9932 51.0933 83.8865 50.8467 83.8998 50.54V49.86C83.8998 49.1133 83.8798 48.3933 83.8398 47.7C83.8132 46.7933 83.7998 46.1 83.7998 45.62L83.7798 43.36C83.7798 42.56 83.8065 41.7533 83.8598 40.94C83.8732 40.5267 84.0265 40.18 84.3198 39.9C84.6265 39.6067 85.0065 39.4267 85.4598 39.36C85.6332 39.3467 85.9465 39.34 86.3998 39.34L88.3198 39.36C89.2398 39.36 90.0598 39.48 90.7798 39.72C91.4998 39.96 92.1198 40.3467 92.6398 40.88C92.8132 41.08 92.9532 41.3467 93.0598 41.68C93.1665 42 93.2198 42.3133 93.2198 42.62C93.1798 43.7 92.5598 44.58 91.3598 45.26C92.3198 45.38 93.0265 45.68 93.4798 46.16C93.9465 46.64 94.1798 47.24 94.1798 47.96ZM86.6198 44.78C86.7532 44.7667 86.9665 44.76 87.2598 44.76H88.1598C88.5598 44.76 88.8398 44.7467 88.9998 44.72C90.3598 44.4133 91.0398 43.8733 91.0398 43.1C91.0398 42.9 91.0065 42.6867 90.9398 42.46C90.8865 42.2333 90.8132 42.0733 90.7198 41.98C90.3732 41.6467 90.0465 41.4333 89.7398 41.34C89.4332 41.2333 88.9798 41.18 88.3798 41.18C87.2198 41.18 86.3865 41.24 85.8798 41.36L85.8998 44.8L86.6198 44.78ZM87.5398 50.42C88.9265 50.42 90.0132 50.2467 90.7998 49.9C91.5998 49.5533 91.9998 48.8733 91.9998 47.86C91.9998 47.46 91.7065 47.1333 91.1198 46.88C90.5332 46.6133 89.8932 46.48 89.1998 46.48C88.3465 46.48 87.7465 46.5 87.3998 46.54C87.1065 46.5667 86.9065 46.58 86.7998 46.58C86.5998 46.58 86.4598 46.5733 86.3798 46.56C86.3132 46.56 86.2332 46.56 86.1398 46.56C86.0598 46.5467 85.9732 46.5467 85.8798 46.56L85.8998 47.22C85.9132 47.38 85.9332 47.82 85.9598 48.54C85.9998 49.2467 86.0065 49.7467 85.9798 50.04C86.2865 50.1733 86.5532 50.2733 86.7798 50.34C87.0065 50.3933 87.2598 50.42 87.5398 50.42ZM97.5766 52.06C97.1766 52.06 96.8966 51.94 96.7366 51.7C96.5899 51.46 96.5166 51.12 96.5166 50.68L96.5366 48.08L96.5166 47.68C96.4499 46.4133 96.4166 45.3667 96.4166 44.54L96.4966 42.16L96.5166 40.96C96.5166 40.56 96.5299 40.2533 96.5566 40.04C96.5832 39.8267 96.6699 39.6533 96.8166 39.52C96.9632 39.3867 97.1966 39.32 97.5166 39.32C97.9166 39.32 98.2032 39.42 98.3766 39.62C98.5499 39.8067 98.6366 40.1333 98.6366 40.6L98.6166 41.02C98.5632 42.0867 98.5366 42.8933 98.5366 43.44C98.5366 44.04 98.5499 44.7467 98.5766 45.56C98.6032 46.36 98.6232 46.9267 98.6366 47.26C98.7032 48.6867 98.7366 49.9133 98.7366 50.94C98.7366 51.34 98.6499 51.6267 98.4766 51.8C98.3166 51.9733 98.0166 52.06 97.5766 52.06ZM111.152 41.74C111.592 42.26 111.952 42.8467 112.232 43.5C112.525 44.1533 112.672 44.94 112.672 45.86C112.672 46.54 112.512 47.2533 112.192 48C111.885 48.7333 111.485 49.3267 110.992 49.78C110.485 50.2733 109.985 50.6733 109.492 50.98C109.012 51.2867 108.365 51.54 107.552 51.74C106.739 51.9267 105.699 52.02 104.432 52.02C103.605 52.02 102.999 51.88 102.612 51.6C102.239 51.32 102.052 50.9 102.052 50.34C102.052 49.9667 102.105 49.34 102.212 48.46C102.319 47.6067 102.372 47.02 102.372 46.7C102.372 45.4333 102.352 44.3667 102.312 43.5C102.285 42.62 102.252 41.8133 102.212 41.08C101.839 41.08 101.579 40.9867 101.432 40.8C101.285 40.6133 101.212 40.42 101.212 40.22C101.212 39.9 101.365 39.66 101.672 39.5C101.979 39.3267 102.505 39.24 103.252 39.24C105.052 39.24 106.599 39.4067 107.892 39.74C109.199 40.0733 110.285 40.74 111.152 41.74ZM104.092 50.14C104.412 50.1933 104.865 50.22 105.452 50.22C106.319 50.22 107.145 50.04 107.932 49.68C108.719 49.3067 109.352 48.7933 109.832 48.14C110.312 47.4733 110.552 46.7067 110.552 45.84C110.552 44.9333 110.392 44.16 110.072 43.52C109.765 42.88 109.272 42.3533 108.592 41.94C108.112 41.6333 107.519 41.4133 106.812 41.28C106.105 41.1333 105.245 41.06 104.232 41.06C104.232 41.8733 104.245 42.5533 104.272 43.1L104.312 43.72C104.365 44.8667 104.392 45.7267 104.392 46.3C104.392 46.8467 104.359 47.4933 104.292 48.24C104.239 48.9867 104.172 49.62 104.092 50.14ZM119.775 46.7C120.388 46.7 120.695 47.0467 120.695 47.74C120.695 48.1 120.568 48.36 120.315 48.52C120.075 48.68 119.775 48.76 119.415 48.76C119.308 48.76 119.195 48.7533 119.075 48.74C118.955 48.7267 118.828 48.7133 118.695 48.7C118.295 48.6333 117.935 48.6 117.615 48.6C117.388 48.6 117.048 48.6267 116.595 48.68C116.115 48.7333 115.748 48.76 115.495 48.76C115.135 48.76 114.815 48.6933 114.535 48.56C114.255 48.4133 114.115 48.1733 114.115 47.84C114.115 47.3733 114.288 47.0733 114.635 46.94C114.981 46.7933 115.468 46.72 116.095 46.72L116.755 46.74C117.075 46.7667 117.321 46.78 117.495 46.78L118.955 46.74L119.775 46.7ZM134.402 39.36C134.589 39.36 134.815 39.4867 135.082 39.74C135.362 39.98 135.502 40.1867 135.502 40.36C135.502 41.1733 135.475 42.2867 135.422 43.7C135.409 44.0467 135.395 44.4667 135.382 44.96C135.369 45.44 135.362 46 135.362 46.64C135.362 48.6667 135.482 50.16 135.722 51.12C135.709 51.44 135.582 51.6733 135.342 51.82C135.102 51.9533 134.862 52.02 134.622 52.02C134.089 52.02 133.735 51.8333 133.562 51.46C133.402 51.0867 133.322 50.5533 133.322 49.86C133.322 47.2867 133.349 44.92 133.402 42.76C131.869 44.4667 130.675 45.9 129.822 47.06C129.822 47.06 129.702 47.14 129.462 47.3C129.235 47.5 129.049 47.6 128.902 47.6C128.555 47.6 128.269 47.5133 128.042 47.34C127.815 47.1667 127.595 46.9133 127.382 46.58L126.422 45.22C125.755 44.2867 125.269 43.58 124.962 43.1C124.962 44.3267 125.022 45.9933 125.142 48.1C125.235 49.3133 125.282 50.2267 125.282 50.84C125.282 51.16 125.202 51.4333 125.042 51.66C124.882 51.8733 124.629 51.98 124.282 51.98C123.935 51.98 123.649 51.9133 123.422 51.78C123.209 51.6467 123.095 51.4467 123.082 51.18C123.095 50.9533 123.102 50.58 123.102 50.06C123.102 49.02 123.069 47.7533 123.002 46.26L122.962 45.18L122.922 43.78C122.909 43.3667 122.895 42.8867 122.882 42.34C122.869 41.78 122.862 41.1733 122.862 40.52C122.862 39.72 123.295 39.32 124.162 39.32C124.429 39.32 124.695 39.3867 124.962 39.52C125.242 39.6533 125.449 39.8467 125.582 40.1C125.689 40.5667 126.082 41.34 126.762 42.42C127.442 43.5 128.109 44.5133 128.762 45.46C129.349 44.7133 129.829 44.1533 130.202 43.78C130.842 43.1267 131.369 42.52 131.782 41.96C132.209 41.4 132.669 40.7267 133.162 39.94C133.282 39.78 133.455 39.6467 133.682 39.54C133.909 39.42 134.149 39.36 134.402 39.36ZM139.605 39.3C139.858 39.3 140.085 39.3667 140.285 39.5C140.498 39.6333 140.625 39.8667 140.665 40.2C140.825 41.2533 140.925 42.3067 140.965 43.36C141.018 44.4 141.045 45.58 141.045 46.9C141.045 47.46 140.998 48.48 140.905 49.96C141.491 50.0133 141.945 50.04 142.265 50.04C142.491 50.04 143.005 50.0067 143.805 49.94C144.271 49.8733 144.678 49.84 145.025 49.84C145.345 49.84 145.638 49.8733 145.905 49.94C146.171 49.9933 146.445 50.0867 146.725 50.22C147.005 50.38 147.145 50.6267 147.145 50.96C147.145 51.2267 147.058 51.4667 146.885 51.68C146.725 51.8933 146.531 52 146.305 52C146.145 52 145.891 51.9733 145.545 51.92C144.918 51.8267 144.318 51.78 143.745 51.78C143.558 51.78 143.345 51.7933 143.105 51.82C142.878 51.8333 142.711 51.84 142.605 51.84C142.285 51.88 141.965 51.9 141.645 51.9C140.991 51.9 140.405 51.8667 139.885 51.8C139.618 51.7733 139.351 51.6733 139.085 51.5C138.818 51.3133 138.685 51.0467 138.685 50.7C138.685 50.5 138.711 49.9867 138.765 49.16C138.858 47.7867 138.905 46.74 138.905 46.02C138.905 45.46 138.878 44.8733 138.825 44.26C138.771 43.6467 138.738 43.26 138.725 43.1C138.605 41.9667 138.545 41.0333 138.545 40.3C138.545 39.9533 138.625 39.7 138.785 39.54C138.958 39.38 139.231 39.3 139.605 39.3Z" fill="#FCB95C"/>
<g clip-path="url(#clip0_1_963)">
<path d="M34.4569 -2.37384e-05C34.287 -0.00148573 34.1191 0.0400519 33.9664 0.121304C32.8563 0.724748 30.0544 6.98588 28.5742 10.5906C27.2754 13.6666 26.2287 16.8612 25.4463 20.1371C23.317 20.7501 22.5299 21.9698 22.2597 22.3721C22.0939 22.6555 21.9541 22.956 21.8426 23.2693C21.6546 23.7482 21.4402 24.2942 21.1142 24.5113C20.6796 24.805 18.0333 25.7884 16.2829 26.427C15.1992 26.8229 14.2623 27.1645 13.7101 27.3848C12.9902 27.5434 12.2566 27.6173 11.5221 27.6051H11.1638C11.2376 27.4286 11.3014 27.2474 11.3547 27.0624C11.481 26.6345 11.5867 26.2418 11.666 25.9257C11.7041 25.9289 11.7424 25.9289 11.7805 25.9257C12.0016 25.937 12.2196 25.866 12.3985 25.7243C12.5774 25.5827 12.7065 25.3789 12.7644 25.1467C12.8907 24.655 12.7644 23.761 12.6264 23.1288C13.1403 22.7169 13.8893 22.0113 14.0244 21.3089C14.0555 21.163 14.0593 21.0118 14.0356 20.8642C14.0119 20.7167 13.9611 20.5758 13.8863 20.45C13.7266 20.2035 13.5118 20.0052 13.262 19.8739C13.0123 19.7426 12.7359 19.6827 12.459 19.6997H12.3767C12.083 18.8249 11.3899 17.2668 9.9743 16.4558C9.28767 16.0813 8.52792 15.8929 7.75983 15.9066C6.02701 15.9066 4.29713 16.7368 3.46303 17.9724C2.01217 20.1116 2.28823 23.4002 2.46151 24.7124C2.68766 26.3089 3.34262 27.1773 3.77729 27.586C3.77729 27.6466 3.75379 27.7105 3.73911 27.7807C2.69906 28.1357 1.78452 28.8296 1.11942 29.7685C0.454325 30.7074 0.0708223 31.8459 0.0208873 33.0298C-0.128898 35.5233 0.608278 36.7749 1.52168 38.3618C1.87999 38.978 2.28529 39.674 2.69647 40.5361C3.80371 42.8988 3.81545 43.5341 3.87126 45.9096C3.87126 46.4428 3.88889 47.0494 3.91532 47.7774C4.01517 50.7308 4.56146 51.4843 4.85515 51.8866C4.31769 55.1848 4.53502 58.0455 4.85515 62.3495V62.4133C5.02834 64.708 5.4422 66.9736 6.08869 69.1661C5.08424 69.3577 3.7391 69.7632 3.34848 70.5742C3.25954 70.752 3.21295 70.9512 3.21295 71.1537C3.21295 71.3561 3.25954 71.5553 3.34848 71.7332C3.89476 72.9049 6.60852 75.3475 7.64234 76.251C7.48962 77.5792 6.99034 81.88 6.84055 82.9208C6.76342 83.3603 6.76942 83.8122 6.85817 84.2491C6.58135 84.5252 6.39215 84.8896 6.31776 85.2899C6.29496 85.459 6.30458 85.6314 6.34603 85.7962C6.38748 85.9611 6.45985 86.1148 6.55859 86.2478C6.85229 86.6628 9.39571 88.9936 10.7996 88.9936C10.9247 88.9941 11.0492 88.9759 11.1696 88.9393C12.0008 88.6743 12.5177 87.5153 12.8026 86.6086C12.9701 86.6809 13.1481 86.7199 13.3283 86.7235C13.6017 86.7235 13.867 86.6223 14.0806 86.4366C14.2941 86.2509 14.4431 85.9918 14.5031 85.7018C14.7674 84.8269 15.299 82.0141 15.581 80.4687C17.4649 81.711 19.4101 82.8398 21.4079 83.8499C21.3689 83.9359 21.311 84.01 21.2392 84.0657C21.1675 84.1214 21.0842 84.157 20.9968 84.1692C20.6608 84.1904 20.3364 84.3099 20.0577 84.5151C19.7791 84.7202 19.5566 85.0034 19.4137 85.3346C19.2737 85.6179 19.2053 85.9366 19.2156 86.258C19.226 86.5794 19.3146 86.8921 19.4725 87.1641C19.587 87.3461 19.9424 87.8984 22.1158 87.8984C22.9117 87.8984 24.3273 87.8186 24.8677 87.2822C25.2317 86.8617 25.5482 86.3955 25.8105 85.8934C26.2628 85.1271 26.8237 84.1724 27.367 83.735C28.6534 82.6941 29.5169 80.2516 29.0441 78.9873C28.5712 77.7229 25.8574 76.152 24.5622 75.9892C23.6812 75.8775 22.2714 75.1974 20.9292 73.6201C19.8859 72.4874 18.735 71.4781 17.4959 70.6093C17.9581 68.5911 18.1627 66.5133 18.1038 64.4344C18.5503 63.55 20.427 59.6803 20.7266 56.6918C20.9538 54.3491 20.998 51.9896 20.8587 49.6388V49.5973C20.8446 49.1867 20.7322 48.7873 20.5327 48.4383C20.4476 48.2755 20.427 48.2372 20.5533 47.8317C20.847 46.9313 20.7178 45.9543 20.568 44.7219C20.4828 44.0035 20.3829 43.1925 20.3418 42.2442C20.2777 40.9555 20.1512 39.6712 19.9629 38.3969C20.7592 38.7853 21.6219 38.9866 22.4946 38.9876C23.3757 38.9876 24.1217 38.78 24.5064 38.432C25.2143 37.7934 25.4903 36.1587 25.5961 34.9007C25.6645 34.2933 25.7754 33.6923 25.9279 33.1032C26.2845 32.8796 26.5866 32.5665 26.809 32.19C26.9206 32.0336 27.0381 31.8708 27.1703 31.7047C27.6578 31.1045 27.7371 30.3797 27.8135 29.6773C27.8438 29.3421 27.8938 29.0094 27.9633 28.6811C28.0853 28.1289 28.1484 27.5632 28.1512 26.9953L28.2041 26.8995C28.5561 26.8514 28.8989 26.7436 29.2203 26.5802C29.887 26.2067 29.9193 25.2712 29.9516 24.2782C29.9559 23.9578 29.9775 23.638 30.0162 23.3204C30.1018 22.655 30.0101 21.9768 29.7519 21.3664C29.9986 20.6065 30.8444 18.1735 32.868 13.5791C35.7316 7.08486 37.0121 4.00059 37.0121 2.83201C37.0033 1.49103 35.4849 -2.37384e-05 34.4569 -2.37384e-05ZM20.7912 25.4596C20.7932 25.7591 20.8168 26.058 20.8617 26.3536C20.9289 26.8232 21.1116 27.2645 21.3903 27.6307C21.4402 27.6913 21.4902 27.7456 21.543 27.7999C21.1436 28.1383 20.7177 28.5087 20.1979 28.9238C18.5371 30.2544 16.7524 31.392 14.8732 32.3178C14.5609 32.4388 14.2409 32.5349 13.9157 32.6051C13.4954 32.6938 13.0691 32.744 12.6411 32.7552C12.6411 32.7552 12.9348 32.8925 13.3107 33.0329C12.356 33.4353 11.3826 33.7827 10.3943 34.0738C10.3599 33.5026 10.4206 32.9294 10.5734 32.3816C10.8572 31.471 10.9759 30.5093 10.9229 29.5496C11.0152 29.519 11.1055 29.4817 11.1931 29.4378C11.7542 29.2676 12.2968 29.0321 12.8114 28.7354C12.6381 29.0887 12.4974 29.4598 12.3914 29.8433C12.604 29.4752 12.8532 29.1337 13.1345 28.8248C13.4079 28.5269 13.7114 28.2634 14.0391 28.0394V28.0394L14.2094 27.9468C15.7308 27.3529 19.2405 26.1333 20.7912 25.4596V25.4596ZM24.5241 37.0783C24.4083 37.3029 24.2348 37.4859 24.0248 37.6051C23.6822 37.7544 23.3031 37.7724 22.9498 37.6562C22.2854 37.4888 21.6672 37.1517 21.1465 36.6728L21.2053 36.7015C21.7398 36.9633 22.2831 37.1836 22.2831 37.1836C22.2831 37.1836 21.822 36.8037 21.3874 36.3918C21.1495 36.1715 20.9204 35.9448 20.7618 35.782C20.7941 34.6166 21.0907 33.2628 22.1099 32.3401L22.4036 32.4902C22.7223 32.7392 23.0779 32.9271 23.455 33.0457C23.8908 33.168 24.3384 33.2334 24.7884 33.2405L24.5505 35.2488L25.0439 34.1057C25.0028 34.3516 24.9675 34.5974 24.947 34.8337C24.8889 35.5975 24.7469 36.3511 24.5241 37.0783ZM24.3185 82.8474C24.2597 82.8474 24.1687 82.8474 24.0659 82.8474C23.9631 82.8474 23.8368 82.8474 23.7076 82.8761L23.3023 82.9304L22.9029 83.0166C22.7736 83.0422 22.6562 83.0869 22.5563 83.1124C22.4564 83.1379 22.3713 83.1795 22.3125 83.1986L22.2215 83.2369H22.3213C22.383 83.2369 22.4711 83.2369 22.5739 83.2369H22.6297C22.4153 83.2912 22.2156 83.3519 22.057 83.403L21.6165 83.1795L21.7075 83.0805L21.9131 82.7612C21.963 82.6431 22.0159 82.5281 22.0629 82.4164C22.1099 82.3046 22.1275 82.1897 22.1539 82.0971C22.1804 82.0045 22.1774 81.9119 22.1862 81.8512V81.7523L22.1099 81.8097L21.9395 81.9694L21.7339 82.2184L21.5372 82.5217L21.3844 82.857C21.3639 82.9145 21.3463 82.9687 21.3286 83.023L21.2347 82.9751L22.0365 81.3787L24.762 82.9751C24.6035 83.076 24.4171 83.1123 24.2362 83.0773C24.088 83.0488 23.9374 83.037 23.7869 83.0422L24.0806 82.956C24.1634 82.9329 24.2449 82.9041 24.3243 82.8697L24.4154 82.8314L24.3185 82.8474ZM14.2652 84.3384L14.3944 83.6456L14.741 81.8129C14.8878 81.0562 15.0347 80.1686 15.2168 79.2235C15.3989 78.2785 15.5692 77.2631 15.7366 76.2478C15.904 75.2325 16.0803 74.2204 16.2271 73.2657C16.374 72.3111 16.5208 71.4267 16.6324 70.6604C16.744 69.8941 16.8439 69.2619 16.9114 68.8149L17.0172 68.1157L16.9526 68.8213C16.9056 69.2715 16.8468 69.9133 16.7528 70.6795C16.6589 71.4458 16.5531 72.343 16.4151 73.3009C16.277 74.2587 16.1214 75.274 15.9481 76.2893C15.7748 77.3047 15.5839 78.3168 15.4018 79.2619C15.2197 80.2069 15.023 81.0882 14.8585 81.8417C14.694 82.5952 14.5384 83.2178 14.4356 83.6552L14.2652 84.3384ZM11.7042 83.9042C11.6484 83.8308 11.5661 83.7286 11.4575 83.6105C11.3258 83.4911 11.1886 83.3792 11.0463 83.2752C10.8719 83.174 10.6925 83.0834 10.5088 83.0039C10.3158 82.9459 10.1196 82.9011 9.92143 82.8697C9.75026 82.8588 9.57864 82.8588 9.40746 82.8697C9.25474 82.8921 9.13432 82.9208 9.04914 82.94L8.91699 82.9879L9.04914 83.0326C9.11376 83.0485 9.19894 83.0709 9.2988 83.1028C9.04636 83.1217 8.79636 83.1688 8.55279 83.2433L8.82887 81.1935L13.0229 81.9949C12.8496 82.8953 12.6675 83.7957 12.5236 84.6992C12.4883 84.9227 12.4678 85.076 12.456 85.2229C12.1661 84.947 11.9015 84.6412 11.666 84.3097C11.5352 84.1239 11.3876 83.9528 11.2255 83.7989L11.3136 83.8404C11.4244 83.8811 11.5332 83.928 11.6396 83.9809L11.7688 84.0351C11.7688 84.0351 11.7541 83.9809 11.7042 83.9042V83.9042ZM9.45445 67.7485C9.39302 67.4389 9.34986 67.1254 9.32522 66.8098C11.2643 66.1644 13.3325 66.1334 15.2873 66.7204C15.2282 67.129 15.2085 67.5431 15.2285 67.9561C14.4126 67.66 13.5697 67.4598 12.7145 67.359C11.6151 67.2733 10.5105 67.4052 9.45445 67.7485V67.7485ZM7.69226 74.1565L4.31474 70.4944C4.53367 70.3638 4.76386 70.2568 5.002 70.1751L8.02708 73.4541L7.95954 73.9203C7.88193 74.0034 7.80057 74.0822 7.71576 74.1565H7.69226ZM5.47779 70.0314C5.77149 69.9484 6.06518 69.8877 6.31188 69.8398L8.25029 71.9439L8.11225 72.8858L5.47779 70.0314ZM8.33252 71.3692L6.86403 69.7728C7.26346 69.7536 7.89786 69.7377 8.56749 69.7728L8.33252 71.3692ZM9.98018 60.7147C9.94493 59.875 9.91556 59.1471 10.2739 58.5117C10.4642 58.2439 10.7359 58.0583 11.0404 57.9881L10.5881 63.253C10.2979 63.3261 10.0123 63.42 9.73346 63.534C9.98809 62.6216 10.0749 61.6636 9.98898 60.7147H9.98018ZM16.5825 58.8214C16.7088 58.914 16.8409 59.0162 16.9702 59.1247C17.0994 59.2333 17.211 59.3578 17.3226 59.4727C17.4342 59.5877 17.5194 59.709 17.5987 59.792C17.678 59.875 17.7308 59.99 17.7749 60.0506C17.819 60.1113 17.8336 60.1528 17.8336 60.1528L17.7426 60.0826C17.6897 60.0315 17.6046 59.9708 17.5135 59.8878C17.4225 59.8048 17.3079 59.7122 17.1963 59.6068C17.0847 59.5015 16.9584 59.3961 16.8321 59.2875C16.7058 59.179 16.6265 59.0992 16.5384 59.013L15.5604 63.4829L15.2667 63.4127L15.8365 58.3297C16.0433 58.4196 16.2403 58.5342 16.4239 58.6713C16.4823 58.7178 16.5382 58.7679 16.5913 58.8214H16.5825ZM14.8203 63.3584C14.4972 63.2945 14.1624 63.2339 13.8188 63.1828L14.3739 57.921C14.7201 57.9862 15.0617 58.0779 15.396 58.1956L14.8203 63.3584ZM13.39 63.1285L12.9201 63.0806C12.7233 63.0806 12.5412 63.0583 12.3591 63.0551L12.8261 57.7582C13.2003 57.7656 13.5739 57.7955 13.9451 57.8476L13.39 63.1285ZM11.9215 63.0647C11.6194 63.0764 11.3183 63.1084 11.0199 63.1604L11.4751 57.8699L11.5955 57.8444C11.858 57.7991 12.1228 57.7724 12.3885 57.7646L11.9215 63.0647ZM9.47795 64.4408C9.8157 64.2364 11.0081 63.6298 12.8878 63.7862L13.1345 63.8086C13.2696 63.8086 13.4106 63.8086 13.5574 63.8086C13.8511 63.8309 14.1947 63.8692 14.5207 63.9203C14.8467 63.9714 15.1698 64.0608 15.4694 64.1438C15.769 64.2268 16.0421 64.3354 16.2741 64.428C16.5061 64.5206 16.6941 64.6164 16.8263 64.6802L17.0289 64.7888L16.8116 64.7249C16.6735 64.677 16.4738 64.6228 16.2389 64.5557C16.0039 64.4887 15.7836 64.4312 15.5222 64.3673C15.4987 64.5525 15.4752 64.7377 15.4547 64.9197C13.4595 64.337 11.3545 64.369 9.37516 65.0123C9.38985 64.8335 9.42215 64.6387 9.47795 64.4408ZM12.6646 68.0646C12.7732 68.0646 12.8819 68.0902 12.9906 68.1061L10.9817 81.1169L10.1417 80.9541L11.9039 68.0359C12.1538 68.0281 12.404 68.0377 12.6528 68.0646H12.6646ZM13.4194 68.1796C13.7512 68.2434 14.0743 68.3264 14.3827 68.419L12.3004 81.3691L11.4193 81.1967L13.4194 68.1796ZM14.8027 68.5499L15.252 68.7096C14.9877 70.4656 14.7146 72.2217 14.4326 73.9777C14.041 76.3638 13.6328 78.7467 13.2079 81.1265C13.1815 81.2606 13.158 81.3947 13.1315 81.5288L12.7262 81.4489L14.8027 68.5499ZM9.32228 65.5391C11.2961 64.8546 13.4105 64.8092 15.4077 65.4082C15.3842 65.6732 15.3636 65.9414 15.3431 66.2256V66.2447C13.3637 65.6668 11.2758 65.6956 9.31054 66.3277C9.29754 66.065 9.29754 65.8018 9.31054 65.5391H9.32228ZM11.4721 68.0582L9.70996 80.8742L8.91405 80.721L10.6028 68.1828C10.8583 68.1317 11.1491 68.087 11.4604 68.0582H11.4721ZM25.1438 82.6782L16.048 77.3366C16.0891 77.078 16.1331 76.8098 16.1801 76.5384L25.5403 81.9343C25.4466 82.207 25.3083 82.459 25.132 82.6782H25.1438ZM21.3257 81.8321L15.8424 78.6712C15.8805 78.4062 15.9246 78.122 15.9687 77.8283L21.6576 81.1712L21.3257 81.8321ZM16.6442 74.0544C17.4518 74.5365 19.1964 75.6508 20.3888 76.8896L16.5414 74.5524C16.5766 74.3864 16.6089 74.2204 16.6442 74.0544ZM16.2624 76.0531C16.3211 75.7178 16.3828 75.3794 16.4503 75.0346L21.2258 77.9464C21.9803 78.9063 22.86 79.7411 23.8368 80.424L16.2624 76.0531ZM15.7719 79.1629L21.1172 82.244L20.847 82.7835C19.0797 81.8717 17.36 80.8548 15.6955 79.7376C15.719 79.562 15.7454 79.38 15.7719 79.1629V79.1629ZM18.515 62.193C18.424 62.4197 18.3388 62.6145 18.2654 62.7741L18.0304 63.269L18.2272 62.7549C18.2918 62.5921 18.3623 62.391 18.4416 62.1579C18.5209 61.9248 18.6119 61.6694 18.703 61.382C18.8968 60.8137 19.076 60.1336 19.2669 59.4057C19.4578 58.6777 19.6076 57.8859 19.7339 57.0909C19.8601 56.2959 19.9541 55.4945 20.0276 54.741C20.101 53.9875 20.1186 53.2786 20.1098 52.672C20.1098 52.3687 20.1098 52.0909 20.1098 51.8451C20.1098 51.5992 20.1098 51.3821 20.0922 51.2065C20.0511 50.8521 20.0511 50.6446 20.0511 50.6446L20.1157 51.1969C20.1362 51.3725 20.1538 51.5864 20.1715 51.8355C20.1891 52.0845 20.2126 52.3591 20.2185 52.6656C20.242 53.2755 20.239 53.9875 20.2008 54.7505C20.1627 55.5136 20.0657 56.3214 19.9453 57.126C19.8249 57.9306 19.6516 58.7224 19.446 59.4536C19.2405 60.1847 19.029 60.8584 18.8175 61.4235C18.7177 61.7141 18.6119 61.9695 18.515 62.193V62.193ZM20.242 34.4825C20.242 34.6134 20.2185 34.7411 20.2096 34.8752C20.1826 35.152 20.1698 35.4302 20.1715 35.7085C20.1715 35.9767 20.1715 36.229 20.1715 36.4461C20.1715 36.6632 20.1715 36.8452 20.195 36.9697V37.174C20.195 37.174 20.1715 37.1038 20.1274 36.9857C20.0682 36.8185 20.0211 36.6467 19.9865 36.4716C19.9328 36.2238 19.8965 35.9719 19.8778 35.7181C19.8778 35.5553 19.8778 35.3829 19.8778 35.2105C19.7485 35.1434 19.6252 35.0827 19.5488 35.0317C18.5278 34.3414 17.5929 33.5108 16.7675 32.5604C17.6692 32.1326 18.6824 31.6281 19.5782 31.1109L21.4579 32.024C20.837 32.6941 20.4137 33.5499 20.242 34.4825V34.4825ZM21.7692 31.411L20.1627 30.6287C20.7031 30.2296 21.3874 29.7124 22.0188 29.1984C21.9011 29.9276 21.8178 30.6629 21.7692 31.4014V31.411ZM24.9793 32.7647C24.9162 32.7646 24.8533 32.7581 24.7913 32.7456C24.4154 32.6785 24.1393 32.4263 24.1746 32.1932C24.2098 31.9602 24.4389 31.8739 24.7326 31.8739C24.7957 31.8741 24.8586 31.8806 24.9206 31.8931C25.2965 31.9602 25.5726 32.2124 25.5373 32.4455C25.5021 32.6785 25.273 32.7647 24.9793 32.7647ZM19.17 37.9307C19.17 37.9307 19.1846 38.0616 19.2081 38.2947C19.2316 38.5278 19.2639 38.8567 19.3021 39.2526C19.3403 39.6485 19.3844 40.1114 19.4314 40.6063C19.4783 41.1012 19.5312 41.628 19.5899 42.1548C19.6487 42.6817 19.6957 43.2085 19.7544 43.7034C19.8132 44.1983 19.8602 44.6612 19.9042 45.0539C19.9483 45.4466 19.9864 45.7787 20.0099 46.0118C20.0334 46.2449 20.0481 46.3758 20.0481 46.3758L19.9688 46.0214C19.9248 45.7915 19.8513 45.469 19.7838 45.0635C19.7162 44.658 19.634 44.2142 19.5694 43.7193C19.5048 43.2244 19.4343 42.6976 19.3756 42.1708C19.3168 41.644 19.2816 41.1108 19.2463 40.6127C19.2111 40.1146 19.1964 39.6549 19.1817 39.2526C19.167 38.8503 19.1817 38.5182 19.167 38.2947C19.1523 38.0712 19.17 37.9307 19.17 37.9307ZM4.44103 27.4902C4.5497 27.1103 4.89921 26.1077 5.65988 25.7948C6.77299 25.335 6.46461 24.2335 6.28252 23.5598C6.22182 23.3724 6.17853 23.1788 6.15329 22.9819C6.11511 22.2987 7.32808 21.8453 8.37658 21.5867C9.23122 21.3556 10.1275 21.381 10.9699 21.6601C10.9699 21.8421 10.9699 22.1263 10.9699 22.4583C10.9191 22.4551 10.8681 22.4551 10.8172 22.4583L10.6469 22.4839H10.5646C10.532 22.4824 10.4993 22.4885 10.469 22.5017C10.4386 22.5149 10.4111 22.5349 10.3884 22.5605C10.3444 22.6147 10.3123 22.6792 10.2944 22.7489C10.2842 22.8013 10.2792 22.8549 10.2797 22.9085C10.287 23.0158 10.3007 23.1224 10.3209 23.2278V23.2278C10.3299 23.3841 10.3525 23.5391 10.3884 23.6907C10.4325 23.8759 10.4883 24.093 10.5323 24.3101C10.5323 24.3676 10.5323 24.4187 10.5676 24.4953C10.585 24.5593 10.6055 24.6222 10.6292 24.6837C10.6762 24.8018 10.7232 24.9136 10.7555 25.0221C10.7718 25.0671 10.7817 25.1145 10.7849 25.1626C10.7839 25.201 10.7715 25.2379 10.7497 25.268C10.6911 25.3497 10.6156 25.4154 10.5294 25.4596H10.5H10.4031C10.3267 25.4596 10.2298 25.4404 10.1417 25.4276C10.044 25.4185 9.94573 25.4185 9.84801 25.4276C9.79333 25.4362 9.74112 25.458 9.69528 25.4915C9.66616 25.5187 9.63577 25.5443 9.60424 25.5681C9.54843 25.6096 9.50437 25.6575 9.46913 25.6831L9.41627 25.731H9.48677C9.52001 25.7282 9.55338 25.7282 9.58661 25.731C9.68647 25.731 9.83038 25.7597 10.0095 25.7661C10.2225 25.7779 10.435 25.7341 10.6292 25.6384C10.7227 25.593 10.8082 25.5304 10.8818 25.4532C10.8349 25.8124 10.7692 26.1685 10.685 26.5196H10.6439C10.5853 26.4973 10.5255 26.4792 10.4648 26.4653C10.3822 26.4469 10.2989 26.4331 10.2151 26.4238L9.92143 26.4014L9.62774 26.4174C9.53769 26.4239 9.44881 26.4432 9.3634 26.4749C9.29988 26.4995 9.24254 26.54 9.19599 26.593C9.17915 26.6136 9.16439 26.6361 9.15195 26.6601C9.17368 26.6508 9.19636 26.6444 9.21949 26.6409C9.27498 26.6319 9.33141 26.6319 9.3869 26.6409C9.45445 26.6409 9.53375 26.6633 9.6248 26.6696L9.91849 26.692H10.2122C10.3032 26.692 10.3913 26.6601 10.4648 26.6505C10.5382 26.6409 10.5999 26.6122 10.6439 26.6026H10.6792C10.4883 27.3721 10.1711 28.1383 9.64536 28.5183C9.44652 28.5783 9.23801 28.5902 9.03446 28.5534C8.8096 28.5248 8.58872 28.4669 8.37658 28.381C8.16002 28.3028 7.94816 28.21 7.7422 28.1032C7.33984 27.8989 6.96096 27.6977 6.6467 27.4998L5.88015 27.0177L5.58646 26.8452L5.83609 27.0943C6.00056 27.2412 6.22378 27.471 6.52041 27.7073L6.89047 27.9947L5.73625 27.6083L6.49399 28.1192C5.82139 27.8903 5.12647 27.7478 4.42341 27.6945C4.43222 27.6179 4.44104 27.5541 4.44985 27.4902H4.44103ZM10.6527 23.7163C10.7144 23.7337 10.7791 23.7337 10.8407 23.7163C10.8912 23.701 10.9396 23.6785 10.9846 23.6492C10.9846 23.9334 10.9846 24.2239 10.9611 24.4985C10.9611 24.5752 10.9611 24.6933 10.9406 24.8402C10.9053 24.755 10.8701 24.672 10.8348 24.5911C10.8116 24.5402 10.791 24.488 10.7731 24.4347C10.7585 24.3964 10.7497 24.3261 10.735 24.2654C10.6743 24.0554 10.6017 23.8496 10.5176 23.6492C10.5582 23.6809 10.6041 23.7037 10.6527 23.7163V23.7163ZM13.7542 21.063C13.7519 21.1042 13.745 21.145 13.7336 21.1844C13.6974 21.3115 13.644 21.432 13.575 21.542C13.5222 21.6346 13.4722 21.7016 13.4429 21.7495L13.3929 21.8197L13.5368 21.5196C13.5915 21.4083 13.6311 21.2889 13.6543 21.1652C13.6685 21.0914 13.6657 21.0149 13.6462 20.9425C13.6268 20.8701 13.5912 20.8041 13.5427 20.7501C13.4123 20.6276 13.259 20.5372 13.0934 20.4851C12.9003 20.424 12.7042 20.3749 12.506 20.3383C12.4002 20.3383 12.2916 20.3 12.1888 20.2872L11.8628 20.2521C11.6454 20.2521 11.4222 20.2233 11.199 20.2297C10.9758 20.2361 10.7497 20.2297 10.5323 20.2585C10.315 20.2872 10.0947 20.2936 9.88325 20.3191L9.28118 20.4021C9.09027 20.4341 8.90817 20.4628 8.74076 20.4979C8.40889 20.5618 8.12988 20.616 7.93604 20.6607L7.64234 20.731C7.64234 20.731 7.74807 20.6863 7.93604 20.616C8.124 20.5458 8.39715 20.4564 8.72902 20.367C8.89349 20.3223 9.07265 20.2776 9.26649 20.2361C9.46033 20.1946 9.66005 20.1499 9.87151 20.1148C10.083 20.0797 10.3032 20.0477 10.5264 20.0318C10.7497 20.0158 10.9787 19.9966 11.2078 19.9934C11.4369 19.9903 11.6689 19.9934 11.8951 20.0254C12.1152 20.0476 12.3339 20.0839 12.55 20.1339C12.7503 20.1804 12.9467 20.2444 13.1374 20.3255C13.3202 20.3975 13.4858 20.5132 13.622 20.6639C13.6824 20.7379 13.723 20.8285 13.7395 20.9258C13.7542 20.9699 13.7631 21.0162 13.7659 21.063H13.7542ZM3.09297 24.6135C3.09297 24.6135 3.09296 24.5496 3.06359 24.4315C3.03422 24.3133 3.01954 24.1377 2.9931 23.9142C2.96667 23.6907 2.94024 23.4162 2.92262 23.1033C2.8985 22.7516 2.89262 22.3988 2.905 22.0464C2.91424 21.627 2.95055 21.2088 3.01366 20.7948C3.07738 20.3305 3.1887 19.8753 3.34554 19.4379C3.51209 18.9627 3.74923 18.5205 4.04749 18.1288C4.37103 17.7347 4.7595 17.4099 5.19289 17.171C6.04058 16.7087 6.98265 16.489 7.93016 16.5324C8.15178 16.5415 8.37258 16.5671 8.59098 16.6091C8.80074 16.653 9.00698 16.7149 9.20775 16.7942L9.35166 16.8485L9.48969 16.9188C9.58074 16.9698 9.67473 17.0082 9.75696 17.0656C9.92016 17.1664 10.0754 17.2817 10.221 17.4105C10.6671 17.8128 11.0363 18.3063 11.3077 18.8632C11.4105 19.0611 11.4751 19.2208 11.5221 19.3325L11.5867 19.5018C11.5867 19.5018 11.4868 19.2687 11.2724 18.8855C10.9777 18.358 10.5964 17.8938 10.1476 17.5158C10.0027 17.3966 9.84951 17.2899 9.6894 17.1965C9.6101 17.1454 9.51614 17.1135 9.43096 17.0688L9.29586 17.005L9.15489 16.9571C8.75723 16.8167 8.34235 16.7424 7.9243 16.7368C7.47542 16.7246 7.02679 16.7706 6.58796 16.8741C6.13792 16.985 5.7027 17.1577 5.29276 17.3881C4.88229 17.6083 4.51285 17.9093 4.20314 18.2757C4.17377 18.3108 4.15028 18.3523 4.12385 18.3875C4.43869 18.0922 4.79714 17.8569 5.18409 17.6914C6.0225 17.3509 6.93669 17.2974 7.80387 17.5382C8.30225 17.6527 8.77302 17.8795 9.18581 18.2039C9.5986 18.5284 9.94425 18.9433 10.2005 19.4219C10.2399 19.5028 10.2752 19.5859 10.3062 19.671C9.13455 19.8301 7.98538 20.1454 6.88459 20.6097C6.11584 20.935 5.40371 21.4003 4.77879 21.9858C5.69135 21.549 6.65333 21.2462 7.6394 21.0854C6.57034 21.4047 5.46604 21.9762 5.52771 23.0426C5.55437 23.295 5.60658 23.5434 5.68338 23.7833C5.92421 24.6422 5.92127 24.9391 5.45429 25.1339C5.11908 25.2944 4.8166 25.5259 4.56449 25.8148C4.31237 26.1036 4.11565 26.4442 3.9858 26.8165C3.49665 26.1941 3.18981 25.4269 3.10471 24.6135H3.09297ZM4.13265 28.3906C4.98437 28.365 5.9154 28.662 6.82293 28.9557C7.07257 29.0355 7.3134 29.1153 7.54835 29.1824C7.13175 29.155 6.71806 29.0888 6.31188 28.9844C5.91833 28.8855 5.54534 28.7961 5.22228 28.729C4.96155 28.6763 4.69735 28.6464 4.43223 28.6396C4.33531 28.6396 4.26188 28.6396 4.20902 28.6396H4.13265H4.20902C4.25894 28.6396 4.33531 28.6396 4.42929 28.6684C4.68669 28.7125 4.94161 28.7722 5.19289 28.8472C5.51009 28.9302 5.86841 29.0643 6.2649 29.1664C6.40881 29.2079 6.5586 29.2431 6.71132 29.2782C6.10065 29.2312 5.49512 29.1243 4.90214 28.9589C4.38107 28.8249 3.85216 28.73 3.31912 28.6747C3.5841 28.5483 3.86077 28.453 4.14441 28.3906H4.13265ZM0.667025 33.084C0.692308 32.4204 0.837606 31.7686 1.09461 31.166C1.35162 30.5634 1.71528 30.0217 2.16487 29.5719V29.5719C2.858 29.2526 3.79197 29.4602 4.77879 29.6901C5.47688 29.8797 6.19178 29.9867 6.91104 30.0093C8.02709 29.9902 9.60423 29.8114 10.2827 29.7284C10.3085 30.5605 10.1971 31.391 9.95374 32.1805C9.81713 32.6627 9.74494 33.1638 9.73934 33.6683C9.73934 33.8088 9.73933 33.9493 9.76577 34.093C9.7822 34.3765 9.81853 34.6583 9.87443 34.9359C9.92003 35.1902 9.95239 35.4471 9.97136 35.7053C9.98289 35.8913 9.97204 36.078 9.93906 36.2609C9.92437 36.3247 9.91262 36.3758 9.90087 36.411L9.88619 36.462V36.4078C9.88974 36.3567 9.88974 36.3055 9.88619 36.2545C9.87287 36.0785 9.84435 35.9043 9.80101 35.7341C9.75989 35.5202 9.67473 35.2775 9.61012 35.0061C9.55396 34.7673 9.50983 34.5254 9.47795 34.2813C7.24585 34.8433 4.99613 35.3733 2.70823 35.4276C2.21784 35.473 1.72453 35.3909 1.2691 35.1881C1.0516 35.0711 0.865491 34.8952 0.728708 34.6773C0.656807 34.15 0.636128 33.616 0.667025 33.084V33.084ZM3.26918 40.2232C2.76402 39.1504 2.27062 38.3458 1.85063 37.6115C2.14433 37.7392 2.45565 37.8701 2.78459 37.9818C3.24156 38.1323 3.70643 38.2528 4.17671 38.3426L4.81109 38.4576L4.2237 38.167C3.80395 37.9544 3.39688 37.7134 3.00486 37.4454C2.75522 37.273 2.52026 37.091 2.30586 36.9154C2.69942 36.9154 3.10472 36.8835 3.51589 36.8452C4.1535 36.7643 4.79692 36.7526 5.43667 36.8101L5.73037 36.8452C6.73109 36.987 7.73783 37.0734 8.74664 37.1038C9.67767 37.1038 10.2768 36.9473 10.456 36.5035C10.5179 36.3384 10.5489 36.1615 10.547 35.9831C11.8246 35.4212 12.9612 35.4084 14.2652 35.07C14.0626 36.114 13.6338 38.2372 13.0904 40.3381C12.3591 43.2915 11.4105 46.1842 11.4105 46.1842C11.4105 46.1842 12.6088 43.4032 13.6073 40.5233C14.2682 38.6491 14.8438 36.7398 15.1639 35.6351C15.9519 37.7204 16.5166 39.8973 16.8468 42.1229C16.7851 42.3975 16.7117 42.6849 16.6354 42.969C16.559 43.3106 16.4738 43.6459 16.3828 43.962C16.2917 44.2781 16.23 44.575 16.1537 44.8272C16.0773 45.0795 16.0362 45.2998 15.9951 45.4498L15.9393 45.6893L16.0715 45.4882C16.1478 45.3541 16.2565 45.1689 16.3652 44.9262C16.4738 44.6836 16.5972 44.4026 16.7235 44.0929C16.8497 43.7832 16.9056 43.5405 16.9907 43.25C17.1405 44.409 17.2551 45.6063 17.3608 46.8738C17.7057 46.9239 18.0457 47.0072 18.377 47.1229C18.638 47.2197 18.8898 47.3437 19.1288 47.4933C19.2992 47.605 19.3902 47.6752 19.3902 47.6752C19.3902 47.6752 19.2816 47.6369 19.0965 47.5858C18.8393 47.5099 18.5785 47.4492 18.3153 47.4039C17.9488 47.3416 17.5789 47.3053 17.2081 47.2953C16.8029 47.281 16.3973 47.3013 15.9951 47.356C15.0318 47.4901 14.0361 47.7263 13.0581 47.9626C11.854 48.25 10.7085 48.9715 9.61012 49.6708C8.51169 50.37 7.29872 51.1363 6.05344 51.4045C6.16799 51.1618 6.30601 50.8585 6.45873 50.5105C6.96331 49.3691 7.4056 48.1963 7.78331 46.9984C8.15737 45.8018 8.46148 44.5808 8.69378 43.3426C8.78776 42.8381 8.85532 42.4167 8.89643 42.1197C8.93755 41.8228 8.96398 41.6536 8.96398 41.6536L8.85237 42.1101C8.77895 42.3975 8.67322 42.8094 8.52931 43.2979C8.3854 43.7864 8.20624 44.3483 7.99772 44.9422C7.78919 45.536 7.54249 46.1618 7.2811 46.7781C6.79827 47.8932 6.25697 48.9774 5.65988 50.0252C5.42786 50.4338 5.22521 50.7691 5.07249 51.0117C4.84634 50.536 4.59963 49.6548 4.53502 47.7487C4.40579 43.7736 4.70242 43.2723 3.26918 40.2104V40.2232ZM5.48953 62.3622C5.43373 61.6534 5.3838 60.9861 5.33974 60.3476C5.39261 60.7435 5.46898 61.1298 5.53359 61.5066C5.59821 61.8833 5.69512 62.3112 5.78617 62.6783C5.87722 63.0455 5.96532 63.3967 6.05931 63.716C6.15329 64.0353 6.24141 64.3258 6.32658 64.5781C6.41175 64.8303 6.48811 65.0538 6.56153 65.2326L6.78181 65.7945C6.78181 65.7945 6.6379 64.9229 6.42057 63.6202C6.37064 63.3009 6.31776 62.9433 6.25902 62.573C6.20028 62.2026 6.15916 61.8035 6.09455 61.4012C6.02993 60.9989 5.99762 60.5711 5.94476 60.1464C5.89189 59.7218 5.85666 59.2844 5.81261 58.8469C5.76856 58.4095 5.73036 57.9785 5.70687 57.5475C5.68337 57.1164 5.64813 56.695 5.6217 56.2703C5.58058 55.4498 5.54241 54.6739 5.52185 54.0353C5.50129 53.3968 5.48366 52.8221 5.47191 52.4389C5.47191 52.3495 5.47191 52.2697 5.47191 52.1995C7.11074 52.0813 8.55574 51.1682 9.95374 50.2838C11.061 49.5782 12.1065 48.9141 13.2138 48.6522C14.2637 48.3776 15.3265 48.1644 16.3975 48.0137C16.0832 48.2052 15.7631 48.4064 15.4488 48.6235C15.0347 48.9428 14.6323 49.2621 14.274 49.5814C13.9157 49.9006 13.5897 50.2199 13.3166 50.52C13.0434 50.8202 12.8349 51.0596 12.6851 51.2352L12.459 51.5194L12.7527 51.3023C12.9289 51.1586 13.1815 50.9575 13.4869 50.7212C13.7924 50.4849 14.136 50.1944 14.5149 49.9038C14.8937 49.6133 15.2961 49.2972 15.7131 49.0066C16.1302 48.7161 16.5384 48.4128 16.9379 48.1605C17.0495 48.0871 17.1581 48.0137 17.2668 47.9466H17.4107C17.9041 51.1395 17.5341 54.3323 16.8938 57.4964L16.9761 55.6413L16.3417 57.8316C15.0464 57.1579 12.9436 56.9025 11.5338 57.1483C11.3354 57.1825 11.1392 57.2305 10.9464 57.292C10.9464 56.9951 10.9464 56.6024 10.9464 56.2129C10.9464 55.8233 10.9729 55.4115 11.0022 55.1113C11.0175 54.9451 11.041 54.7799 11.0727 54.6164C11.0088 54.7704 10.953 54.9282 10.9053 55.089C10.8113 55.3763 10.7115 55.769 10.6116 56.165C10.5118 56.5609 10.4471 56.9632 10.3943 57.2633C10.3737 57.375 10.359 57.474 10.3444 57.5506C10.0971 57.6897 9.88748 57.8966 9.7364 58.1509C9.28998 58.9715 9.32522 59.8367 9.3634 60.7499C9.45382 61.6775 9.3535 62.6154 9.0697 63.4957C8.60389 64.9419 8.52747 66.5026 8.84943 67.9944L8.74664 68.7128C8.71498 68.703 8.68252 68.6966 8.64972 68.6936C8.53869 68.6762 8.42593 68.6762 8.3149 68.6936L7.96248 68.7319L7.06082 68.8884L7.80975 69.0544C7.37214 69.0544 6.99621 69.0544 6.74363 69.0799C6.08589 66.8972 5.665 64.6384 5.48953 62.3495V62.3622ZM3.8977 71.3979C3.84627 71.3003 3.82535 71.1871 3.83806 71.0755C3.85077 70.9638 3.89642 70.8596 3.96818 70.7785L7.31634 74.4088C7.16966 74.5002 7.01525 74.5761 6.85523 74.6355C5.71862 73.5818 4.25013 72.1387 3.8977 71.3979ZM7.2341 74.9803C7.45181 74.8752 7.65939 74.7468 7.85379 74.5971L7.73338 75.4305C7.59828 75.3091 7.42207 75.1591 7.24585 74.9899L7.2341 74.9803ZM7.45437 83.0166C7.60415 81.9662 8.09758 77.7197 8.25323 76.3564L9.4104 68.4861C9.50439 68.4541 9.76283 68.3647 10.1299 68.2722L8.0917 83.3934C7.86214 83.4992 7.63853 83.6196 7.42207 83.7542C7.41368 83.5105 7.42845 83.2666 7.46613 83.0262L7.45437 83.0166ZM7.65996 84.4023C9.17838 83.4796 10.3532 83.5881 11.1491 84.7216C11.2872 84.9196 11.4363 85.1083 11.5955 85.2867C11.4278 85.8899 11.1251 86.4384 10.7144 86.8831C10.6616 86.9406 10.6058 86.9949 10.55 87.046C10.1073 86.8922 9.67206 86.7143 9.24593 86.5128C8.67348 86.2413 8.11729 85.931 7.58066 85.5836C8.05991 86.0314 8.56514 86.4452 9.09321 86.8225C9.3869 87.0396 9.69822 87.2375 9.9743 87.4004C9.92118 87.4165 9.86725 87.4293 9.81277 87.4387C9.36047 87.4962 8.93167 87.2375 8.54399 86.9885C8.09727 86.719 7.67277 86.4082 7.27522 86.0594C7.19149 85.9792 7.11298 85.8928 7.04026 85.8008C6.71132 85.3474 7.20472 84.7631 7.6717 84.4119L7.65996 84.4023ZM21.0203 84.8621C21.1762 84.8529 21.3285 84.8074 21.4668 84.7286C21.6052 84.6498 21.7263 84.5396 21.8221 84.4055L23.3875 84.2969L22.5475 83.9777C23.0488 83.8088 23.5747 83.7427 24.0982 83.7829C24.3208 83.8325 24.5513 83.8193 24.7678 83.7446C24.6973 83.8787 24.6239 84.0128 24.5476 84.1437C24.1248 84.9108 23.5763 85.5871 22.9293 86.1392C22.7942 86.1616 22.6591 86.1839 22.521 86.1999C21.7476 86.3076 20.9688 86.3641 20.1891 86.3691C20.1891 86.3691 21.0056 86.5798 21.9748 86.7203C21.4084 86.9634 20.7905 87.0276 20.192 86.9055C20.1143 86.8711 20.0457 86.8163 19.9923 86.7458C19.6252 86.1679 20.0511 84.9323 21.032 84.8717L21.0203 84.8621ZM23.5372 76.1329C24.1246 76.366 24.6709 76.5639 25.1438 76.7395C25.6166 76.9151 26.0014 77.0907 26.2657 77.2216C26.4008 77.2887 26.5006 77.3462 26.5594 77.3845L26.6651 77.4419L26.5535 77.3941C26.483 77.3653 26.3773 77.3174 26.2393 77.2663C25.9691 77.1514 25.5726 77.0205 25.0938 76.8672C24.6151 76.714 24.0541 76.548 23.4609 76.3277C22.8349 76.1006 22.2379 75.7885 21.684 75.3985C21.1507 74.9797 20.6516 74.5119 20.192 74.0001C19.7485 73.5243 19.352 73.0646 18.9791 72.7229C18.6857 72.4279 18.3704 72.1598 18.0363 71.9216C17.9188 71.829 17.816 71.7747 17.7426 71.7268L17.6398 71.6629L17.7485 71.7172C17.816 71.7555 17.9247 71.8002 18.0422 71.88C18.3968 72.0919 18.7322 72.34 19.0437 72.6208C19.4314 72.9656 19.8602 73.3998 20.3095 73.866C20.7622 74.3614 21.2535 74.8133 21.778 75.2165C22.3285 75.6081 22.9239 75.9193 23.549 76.1425L23.5372 76.1329ZM27.3142 28.4959C27.0616 29.5751 27.2055 30.5553 26.6622 31.2226C26.53 31.3886 26.4125 31.5419 26.3097 31.6983C26.2191 31.6159 26.1206 31.5442 26.016 31.4844C25.6892 31.3409 25.3406 31.2651 24.9881 31.2609C24.8116 31.2618 24.6375 31.2164 24.4805 31.1286C24.3236 31.0408 24.1884 30.9131 24.0865 30.7565C24.0355 30.6487 24.0113 30.5284 24.0165 30.4074C24.0216 30.2864 24.0559 30.1689 24.1158 30.0668C24.2405 30.0305 24.3686 30.0102 24.4976 30.0061C24.6711 29.9969 24.845 30.0033 25.0175 30.0253C25.1996 30.0253 25.3787 30.0477 25.5491 30.07C25.7194 30.0924 25.8839 30.0955 26.0219 30.1147C26.16 30.1339 26.2804 30.1147 26.3626 30.1147H26.4948L26.3773 30.0508C26.2739 29.997 26.1681 29.949 26.0601 29.9072C25.9074 29.8478 25.7514 29.7988 25.5931 29.7603C25.4107 29.7187 25.2264 29.6877 25.041 29.6677C24.8449 29.6559 24.6482 29.6645 24.4536 29.6932C24.3241 29.7131 24.1989 29.7574 24.0835 29.8242C24.0093 29.6766 23.9721 29.5104 23.9757 29.3422C23.9793 29.1741 24.0236 29.0099 24.1041 28.8663C24.2277 28.83 24.3549 28.8096 24.483 28.8056C24.6564 28.7948 24.8304 28.8012 25.0028 28.8248C25.1849 28.8248 25.364 28.8472 25.5344 28.8695C25.7047 28.8919 25.8692 28.895 26.0072 28.9142C26.1453 28.9334 26.2657 28.9142 26.3479 28.9142H26.4801L26.3626 28.8503C26.2592 28.7965 26.1534 28.7485 26.0454 28.7067C25.8927 28.6473 25.7367 28.5983 25.5784 28.5598C25.3961 28.5182 25.2117 28.4872 25.0263 28.4672C24.8302 28.4554 24.6335 28.464 24.4389 28.4927C24.3073 28.5131 24.1801 28.5585 24.063 28.6268C23.9495 28.5082 23.8752 28.3522 23.8515 28.183C23.8415 28.0796 23.8504 27.9751 23.8776 27.8753C23.9048 27.7756 23.9498 27.6827 24.0101 27.6019L24.0953 27.5636C24.2351 27.5159 24.3805 27.4901 24.527 27.487C24.7005 27.4778 24.8744 27.4842 25.0469 27.5062C25.226 27.5062 25.4081 27.5317 25.5784 27.5541C25.7488 27.5764 25.9133 27.5796 26.0513 27.5956C26.1893 27.6115 26.3098 27.5956 26.392 27.6147H26.5241L26.4067 27.5509C26.3303 27.5189 26.2216 27.4551 26.0865 27.4104C25.9352 27.3489 25.7801 27.2987 25.6225 27.2603C25.4463 27.222 25.2583 27.1901 25.0674 27.1677C24.8762 27.157 24.6845 27.1656 24.4947 27.1933C24.3233 27.2244 24.1595 27.2928 24.013 27.3944L23.9543 27.4423C23.9338 27.3656 23.9249 27.2858 23.9279 27.206C24.349 26.7149 24.9177 26.4035 25.5314 26.328C26.1917 26.2943 26.8506 26.4197 27.461 26.6952C27.4893 27.3025 27.4439 27.9111 27.3259 28.5055L27.3142 28.4959ZM28.9031 25.9417C28.7526 26.0201 28.5938 26.078 28.4303 26.1141C28.4281 26.0743 28.4191 26.0353 28.4038 25.9991C28.346 25.8937 28.2569 25.8126 28.1512 25.7693C27.2701 25.3031 25.5696 25.169 24.6269 25.6C24.5086 25.5266 24.3823 25.4698 24.2509 25.4308C24.1834 25.4053 24.1188 25.3861 24.0688 25.3638C24.0228 25.3483 23.9799 25.3234 23.9425 25.2903C23.8323 25.1482 23.744 24.9875 23.6812 24.8146C23.5241 24.4531 23.3944 24.0783 23.2935 23.6939C23.2112 23.3746 23.1731 23.1575 23.1731 23.1575C23.1731 23.1575 23.1496 23.3778 23.1437 23.7163C23.1337 24.1339 23.1573 24.5516 23.2142 24.9647C23.2357 25.2145 23.2932 25.459 23.3845 25.6894C23.4503 25.8208 23.5379 25.9377 23.643 26.0343C23.6709 26.0607 23.7003 26.0853 23.7311 26.1077L23.6107 26.1843C23.5257 26.1322 23.4362 26.0894 23.3434 26.0566L23.1701 25.9991C23.1261 25.98 23.1202 25.9992 23.0938 25.9736C23.079 25.9661 23.066 25.9552 23.0556 25.9417C23.0395 25.9132 23.0257 25.8833 23.0145 25.8523C22.991 25.7725 22.9645 25.6607 22.9381 25.5649L22.7795 24.9711L22.4652 23.7833L22.4329 25.019L22.4153 25.6384C22.4153 25.7437 22.4153 25.8363 22.4153 25.9576C22.4158 26.0274 22.4227 26.0969 22.4359 26.1652C22.4531 26.2497 22.4807 26.3314 22.5181 26.4078C22.5819 26.5204 22.6634 26.6198 22.7589 26.7016L22.8206 26.7527C22.5563 26.9506 22.3067 27.1518 22.057 27.3625C21.9931 27.3046 21.9332 27.2417 21.8778 27.1741C21.6729 26.8985 21.5409 26.5673 21.496 26.2163C21.4448 25.8572 21.4232 25.4939 21.4314 25.1307H21.452C22.2097 24.623 22.4094 23.3842 22.7883 22.7967C23.1672 22.2093 23.922 21.2418 25.8545 20.7597C26.3567 20.7821 27.9633 20.9002 29.0852 21.5515C29.2173 21.8433 29.3065 22.1557 29.3495 22.4775C29.2176 22.296 29.0459 22.1533 28.8502 22.0624C28.6166 21.9546 28.3773 21.8618 28.1336 21.7846C27.884 21.7208 27.6314 21.6665 27.3935 21.6218C27.1773 21.5893 26.9596 21.5691 26.7415 21.5611C26.5859 21.5521 26.4301 21.5521 26.2745 21.5611H26.1012L26.2716 21.609C26.3802 21.6346 26.533 21.6856 26.718 21.7272C26.903 21.7687 27.1145 21.8357 27.3406 21.89C27.5668 21.9443 27.8105 22.0145 28.0484 22.0943C28.2842 22.1516 28.5166 22.2241 28.7445 22.3114C28.9338 22.375 29.1074 22.4842 29.2526 22.6307C29.2983 22.6845 29.3387 22.7433 29.373 22.8063C29.3758 22.9326 29.3669 23.0588 29.3466 23.1831C29.3173 23.3947 29.2987 23.6078 29.2908 23.8216C29.2908 23.8216 29.2908 23.8216 29.2908 23.8216C29.1546 23.6105 28.9662 23.4456 28.7474 23.3459C28.5137 23.2392 28.2744 23.1475 28.0308 23.0713C27.7812 23.0043 27.5286 22.95 27.2907 22.9053C27.0745 22.8728 26.8568 22.8526 26.6387 22.8446C26.4841 22.8357 26.3292 22.8357 26.1746 22.8446L25.9984 22.8638L26.1688 22.9117C26.2774 22.934 26.4302 22.9851 26.6152 23.0266C26.8002 23.0681 27.0117 23.1352 27.2378 23.1895C27.464 23.2437 27.7078 23.314 27.9486 23.3938C28.1834 23.4511 28.4148 23.5236 28.6417 23.6109C28.831 23.6745 29.0046 23.7836 29.1498 23.9302C29.2023 23.9909 29.2477 24.0585 29.2849 24.1313C29.2805 24.4803 29.2599 24.8287 29.2232 25.1754C29.2112 25.1468 29.1975 25.1191 29.1821 25.0924C29.0456 24.8829 28.8586 24.7183 28.6417 24.6167C28.407 24.5099 28.1667 24.4182 27.9221 24.3421C27.6725 24.275 27.4199 24.2207 27.185 24.1792C26.9679 24.1444 26.7493 24.123 26.53 24.1154C26.3391 24.1154 26.1776 24.1154 26.066 24.1154L25.8898 24.1345L26.0601 24.1824C26.1688 24.2048 26.3215 24.2559 26.5065 24.2974C26.6915 24.3389 26.903 24.4059 27.1321 24.4602C27.3612 24.5145 27.602 24.5847 27.8399 24.6645C28.0748 24.7214 28.3063 24.7939 28.533 24.8817C28.7228 24.9441 28.8967 25.0534 29.0411 25.2009C29.0981 25.2634 29.1465 25.3343 29.185 25.4117C29.1782 25.5178 29.1505 25.6212 29.1039 25.7148C29.0573 25.8084 28.9928 25.8901 28.9148 25.9545L28.9031 25.9417ZM36.3307 2.95334C33.5788 8.40988 30.3745 16.5005 29.1821 19.556C29.3055 19.0324 29.4758 18.4002 29.6491 17.7744C30.072 16.2866 30.6359 14.8466 30.6359 14.8466C30.6359 14.8466 29.9252 16.21 29.3436 17.6499C28.862 18.8121 28.4626 20.019 28.3363 20.4309C27.8843 20.2865 27.4228 20.1798 26.9559 20.1116L27.5961 16.6346L26.2892 19.3389C27.0513 16.4466 28.0094 13.6196 29.1557 10.8811C31.5846 4.98717 33.6786 1.06638 34.2572 0.753483C34.3081 0.728173 34.3629 0.713032 34.4187 0.708784L32.0398 7.24769L35.012 0.893968C35.6435 1.26434 36.3513 2.12321 36.3513 2.83201C36.3511 2.88006 36.3481 2.92804 36.3424 2.97569L36.3307 2.95334Z" fill="#FCB95C"/>
<path d="M7.82414 22.883C7.92987 22.883 8.05323 22.883 8.17658 22.883C8.30218 22.8654 8.42889 22.859 8.55545 22.8638H8.63181C8.65306 22.8937 8.67773 22.9205 8.70523 22.9436L8.75224 22.9756C8.70543 22.9692 8.65806 22.9692 8.61125 22.9756L8.31755 23.0011L8.02385 23.0809C7.94396 23.1103 7.86638 23.1466 7.79184 23.1895C7.73597 23.219 7.68284 23.2542 7.63323 23.2949L7.57451 23.3427H7.64793H7.73898H7.75366C7.79771 23.3427 7.86526 23.3906 7.93869 23.413C8.00979 23.4344 8.07654 23.4701 8.13546 23.5184L8.19714 23.5662C8.23237 23.5896 8.27118 23.6058 8.31169 23.6141L8.40274 23.6333H8.48202C8.58335 23.64 8.68454 23.618 8.77572 23.5694L8.8462 23.5247C8.9255 23.4737 8.99893 23.4066 9.06942 23.3523C9.09567 23.3312 9.11935 23.3065 9.1399 23.2789C9.16182 23.2974 9.18244 23.3177 9.20158 23.3396C9.25739 23.4034 9.32788 23.4577 9.37487 23.5184C9.39981 23.5487 9.42628 23.5774 9.45416 23.6046C9.47178 23.6429 9.49234 23.678 9.50702 23.7035C9.52463 23.7269 9.54431 23.7483 9.56577 23.7674C9.56464 23.7483 9.56464 23.7291 9.56577 23.7099V23.7099V23.6684C9.57081 23.6008 9.57965 23.5337 9.59221 23.4673C9.61352 23.3625 9.62337 23.2553 9.62157 23.148C9.6157 23.0714 9.59677 22.9967 9.56577 22.9277C9.53334 22.8544 9.48736 22.7892 9.43068 22.7361C9.3311 22.6581 9.22246 22.5948 9.1076 22.5477C9.01332 22.5106 8.91416 22.4901 8.8139 22.4871C8.77006 22.4804 8.72557 22.4804 8.68173 22.4871C8.63474 22.4871 8.58776 22.4871 8.54077 22.4871C8.39947 22.4984 8.2591 22.5208 8.12078 22.5541C7.99155 22.586 7.87994 22.6435 7.78302 22.6754C7.6861 22.7074 7.60681 22.7585 7.54807 22.7776L7.45996 22.8223L7.55689 22.8447C7.64472 22.8662 7.73417 22.879 7.82414 22.883V22.883Z" fill="#FCB95C"/>
<path d="M9.47773 27.2636C9.53561 27.2806 9.59448 27.2934 9.65394 27.3019H9.8566L10.0592 27.2827C10.1239 27.2827 10.1855 27.2508 10.2355 27.2412C10.2788 27.2279 10.321 27.2108 10.3618 27.1901L10.4087 27.1646L10.3618 27.139C10.3206 27.1213 10.2784 27.1064 10.2355 27.0943C10.1776 27.0773 10.1187 27.0645 10.0592 27.056H9.8566L9.65394 27.0752C9.58933 27.0752 9.52766 27.1071 9.47773 27.1167C9.43444 27.13 9.39221 27.1471 9.35144 27.1678L9.30444 27.1933L9.35438 27.2189C9.3944 27.2371 9.43563 27.2521 9.47773 27.2636Z" fill="#FCB95C"/>
<path d="M7.02225 44.9805C7.15148 44.6612 7.29244 44.294 7.43635 43.8885C7.58027 43.4831 7.68893 43.0393 7.80348 42.5923C7.91802 42.1453 7.97676 41.6887 8.04431 41.264C8.11186 40.8394 8.13242 40.4339 8.15592 40.0891C8.17941 39.7443 8.15592 39.4505 8.15592 39.2526C8.15592 39.0546 8.15592 38.9333 8.15592 38.9333L8.08249 39.2526C8.04431 39.4505 7.9885 39.7283 7.91214 40.0604C7.83578 40.3924 7.76823 40.7851 7.67131 41.197C7.57439 41.6089 7.48922 42.0527 7.37761 42.4741C7.26601 42.8956 7.1779 43.3553 7.08391 43.7513C6.98993 44.1472 6.89301 44.5495 6.79022 44.8751C6.68742 45.2008 6.64337 45.4818 6.5905 45.6733C6.53764 45.8649 6.52002 45.9926 6.52002 45.9926L6.66981 45.718C6.75792 45.536 6.88421 45.2934 7.02225 44.9805Z" fill="#FCB95C"/>
<path d="M9.71264 48.0488C9.87124 47.7295 10.0445 47.3272 10.2296 46.9058C10.4146 46.4843 10.5673 46.015 10.7318 45.5488C10.8963 45.0827 11.0255 44.591 11.1341 44.1536C11.2428 43.7162 11.3309 43.2756 11.4014 42.9116C11.4719 42.5476 11.5071 42.2379 11.5365 42.0208C11.5659 41.8037 11.5718 41.6791 11.5718 41.6791L11.4543 41.9984C11.3867 42.2028 11.2898 42.4933 11.1606 42.8413C11.0313 43.1893 10.9168 43.598 10.77 44.0322C10.6231 44.4665 10.4763 44.9326 10.3206 45.3924C10.1649 45.8522 10.0269 46.3215 9.87417 46.7525C9.72145 47.1836 9.60692 47.5986 9.48357 47.9435C9.36021 48.2883 9.28384 48.582 9.21629 48.7928L9.11938 49.112L9.29266 48.8215C9.40132 48.6459 9.54523 48.3777 9.71264 48.0488Z" fill="#FCB95C"/>
<path d="M10.0005 56.9504L10.0622 56.6311C10.0945 56.4332 10.1444 56.149 10.212 55.8106C10.2795 55.4722 10.3383 55.0794 10.4205 54.658C10.5027 54.2365 10.5791 53.7895 10.676 53.3457C10.7729 52.9019 10.8493 52.4517 10.9433 52.0367C11.0372 51.6216 11.1107 51.2257 11.1929 50.8936C11.2752 50.5616 11.3221 50.2742 11.3691 50.0795C11.4161 49.8847 11.4308 49.7602 11.4308 49.7602L11.2898 50.0412C11.2076 50.2232 11.0901 50.485 10.9609 50.8042C10.8317 51.1235 10.7142 51.5099 10.582 51.9217C10.4499 52.3336 10.3559 52.7902 10.2531 53.2404C10.1503 53.6906 10.1062 54.1567 10.0504 54.5877C9.99463 55.0188 9.98581 55.4275 9.97113 55.7755C9.95644 56.1235 9.97113 56.414 9.97113 56.6184C9.97113 56.8227 10.0005 56.9504 10.0005 56.9504Z" fill="#FCB95C"/>
<path d="M19.2959 34.2845C19.1931 34.2015 19.0815 34.093 18.9493 33.994C18.8171 33.895 18.685 33.7801 18.5528 33.6747C18.4207 33.5693 18.2767 33.4608 18.1475 33.3554C18.0183 33.2501 17.8949 33.1639 17.7921 33.0777C17.6893 32.9914 17.5954 32.934 17.5337 32.8861L17.4338 32.819L17.5043 32.9212C17.5543 32.9851 17.6189 33.0808 17.7099 33.183C17.801 33.2852 17.9037 33.4065 18.0271 33.5215C18.1504 33.6364 18.2826 33.7545 18.4177 33.8727L18.8406 34.1919C18.9787 34.2877 19.1167 34.358 19.2313 34.4218C19.3458 34.4857 19.4486 34.5272 19.525 34.5623L19.6366 34.607L19.5455 34.5208C19.4809 34.4474 19.3987 34.3612 19.2959 34.2845Z" fill="#FCB95C"/>
<path d="M2.33501 34.9774C2.76301 35.0425 3.19531 35.0681 3.62729 35.054C4.0972 35.0349 4.59649 34.9998 5.09577 34.9455C5.59506 34.8912 6.08553 34.7731 6.54664 34.6677C7.00774 34.5623 7.42772 34.4123 7.78309 34.2941C8.13847 34.176 8.43217 34.0355 8.63482 33.9525L8.94908 33.7993L8.61132 33.8631L7.73023 34.0387C7.36604 34.1185 6.93725 34.1792 6.48202 34.2654C6.02678 34.3516 5.53631 34.4219 5.04877 34.4793C4.56123 34.5368 4.07077 34.6102 3.60966 34.6454C3.19306 34.6924 2.77441 34.7148 2.35557 34.7124C2.06069 34.7124 1.7662 34.689 1.47448 34.6422C1.26008 34.6102 1.13672 34.5783 1.13672 34.5783C1.13672 34.5783 1.24833 34.6422 1.45392 34.7316C1.73917 34.8458 2.03439 34.9282 2.33501 34.9774V34.9774Z" fill="#FCB95C"/>
<path d="M1.84157 34.2845C2.04895 34.3362 2.25877 34.3757 2.47008 34.4027C2.70211 34.4282 2.95174 34.4474 3.19845 34.457C3.44515 34.4665 3.69773 34.441 3.92975 34.4186C4.1418 34.3957 4.35259 34.3605 4.56121 34.3133C4.74624 34.2782 4.89308 34.2271 4.99881 34.1983L5.16328 34.1409H4.99294C4.88427 34.1409 4.72862 34.1409 4.54653 34.1696C4.36443 34.1983 4.14709 34.1696 3.91801 34.1983C3.68893 34.2271 3.44516 34.1983 3.20139 34.1983C2.95762 34.1983 2.71385 34.1983 2.48477 34.1792C2.25568 34.16 2.04128 34.16 1.85919 34.1377C1.6771 34.1153 1.52143 34.1121 1.41276 34.0994H1.24243L1.40396 34.16C1.50088 34.192 1.64773 34.2462 1.84157 34.2845Z" fill="#FCB95C"/>
<path d="M6.86652 55.3572C6.89883 55.6765 6.93701 56.0213 6.97813 56.3342C7.01924 56.6471 7.08093 56.9281 7.13085 57.1739C7.18078 57.4198 7.23658 57.6209 7.27182 57.7614L7.33645 57.9817L7.31295 57.7518C7.31295 57.6081 7.27769 57.4006 7.25126 57.1516C7.22483 56.9025 7.1984 56.6152 7.16316 56.3055C7.12791 55.9958 7.10443 55.6669 7.08093 55.3476C7.05743 55.0283 7.02805 54.6899 7.01043 54.3898C6.99281 54.0896 6.97226 53.7895 6.96344 53.5405C6.95463 53.2914 6.93996 53.0839 6.93408 52.937C6.92821 52.7902 6.91938 52.7072 6.91938 52.7072L6.89002 52.937C6.89002 53.0839 6.85185 53.2914 6.84304 53.5405C6.83423 53.7895 6.81659 54.0865 6.8254 54.3993C6.83421 54.7122 6.83421 55.0219 6.86652 55.3572Z" fill="#FCB95C"/>
<path d="M11.2544 53.9843L11.3807 53.8374C11.457 53.7416 11.5745 53.6139 11.7096 53.4511C11.8447 53.2883 12.0033 53.1126 12.1795 52.9147C12.3558 52.7167 12.5408 52.5188 12.7346 52.3208C12.9285 52.1229 13.1164 51.9217 13.3044 51.7461C13.4924 51.5705 13.6627 51.3949 13.8184 51.2576C13.974 51.1203 14.0944 50.9958 14.1884 50.9192L14.3265 50.7883L14.162 50.8809C14.0621 50.9447 13.9124 51.0277 13.745 51.1523C13.5776 51.2768 13.3808 51.4173 13.184 51.5897C12.9872 51.7621 12.7846 51.9537 12.5966 52.1516C12.4086 52.3496 12.2207 52.5731 12.0533 52.7902C11.8859 53.0073 11.7596 53.2052 11.6274 53.3808C11.4952 53.5565 11.4218 53.7161 11.3572 53.8247L11.2544 53.9843Z" fill="#FCB95C"/>
<path d="M12.5585 82.2855H12.7201L12.5732 82.2088L12.1826 82.0428L11.6216 81.8608L10.9696 81.7012L10.3059 81.6054L9.71849 81.5639H9.30144H9.13989L9.28382 81.6405L9.67736 81.8034L10.2383 81.9886L10.8903 82.145L11.5512 82.244L12.1385 82.2855H12.5585Z" fill="#FCB95C"/>
<path d="M9.66857 84.3289C9.74493 84.3704 9.82128 84.4438 9.91232 84.4949C10.0047 84.552 10.0939 84.6149 10.1796 84.6833C10.2735 84.7388 10.3647 84.7995 10.4527 84.8653C10.535 84.9323 10.626 84.9771 10.6936 85.0313C10.7611 85.0856 10.8345 85.1175 10.8757 85.1495L10.952 85.1942L10.9226 85.1048C10.8971 85.0295 10.8636 84.9577 10.8228 84.8908C10.7675 84.7959 10.7025 84.708 10.6289 84.629C10.5413 84.5415 10.4491 84.4594 10.3529 84.3832C10.2471 84.3225 10.1355 84.265 10.0327 84.2171C9.93713 84.1822 9.83885 84.1565 9.73905 84.1405C9.66482 84.1327 9.59007 84.1327 9.51584 84.1405H9.43359L9.50116 84.1948C9.5364 84.2299 9.59514 84.2842 9.66857 84.3289Z" fill="#FCB95C"/>
<path d="M9.18383 84.6418C9.26901 84.6897 9.35712 84.7631 9.46285 84.8206C9.56858 84.8781 9.67138 84.9451 9.77711 85.0154C9.88284 85.0856 9.99737 85.1367 10.0972 85.2006C10.1971 85.2644 10.3028 85.3091 10.3909 85.3602C10.479 85.4113 10.5554 85.44 10.6053 85.4687L10.6934 85.5071L10.6494 85.4177C10.6065 85.3425 10.5584 85.271 10.5055 85.2037C10.4314 85.1108 10.3499 85.0253 10.2617 84.9483C10.1618 84.8653 10.0532 84.7855 9.94158 84.7089C9.82997 84.6322 9.70074 84.5907 9.5862 84.5397C9.47781 84.5023 9.36682 84.4745 9.25432 84.4566C9.17476 84.4421 9.09414 84.4357 9.01348 84.4375H8.89014L8.9665 84.4981C9.02524 84.5333 9.08985 84.5907 9.18383 84.6418Z" fill="#FCB95C"/>
<path d="M24.2623 23.4832C24.2417 23.314 24.227 23.148 24.2153 22.9915C24.2035 22.8351 24.1712 22.6723 24.1565 22.5605C24.1419 22.4488 24.1125 22.3274 24.1007 22.2412L24.0714 22.1263L24.0391 22.2412C24.0127 22.346 23.993 22.4527 23.9803 22.5605C23.9593 22.7065 23.9456 22.8535 23.9392 23.0011C23.9392 23.1639 23.9392 23.3204 23.9392 23.5088C23.9392 23.6972 23.9803 23.8504 24.0038 24.01C24.03 24.1548 24.0643 24.2977 24.1066 24.4379C24.1333 24.5398 24.1676 24.6391 24.2094 24.7348L24.2564 24.8434C24.2564 24.8434 24.2564 24.8019 24.2564 24.7252C24.2564 24.6486 24.274 24.5369 24.2564 24.406C24.2388 24.2751 24.2564 24.125 24.2564 23.9685C24.2564 23.8121 24.2652 23.6493 24.2623 23.4832Z" fill="#FCB95C"/>
<path d="M24.9819 22.6595C24.9819 22.4966 24.9349 22.3402 24.9202 22.2157C24.9055 22.0912 24.8673 21.9762 24.8526 21.8964L24.8203 21.7783L24.7939 21.8996C24.7939 21.9762 24.7528 22.0848 24.741 22.2189C24.7293 22.353 24.7087 22.5062 24.7087 22.6723C24.7087 22.8383 24.7087 23.0107 24.7087 23.1863C24.7087 23.3619 24.744 23.5375 24.7616 23.7003C24.7828 23.8498 24.8112 23.9979 24.8468 24.1441C24.869 24.2524 24.8975 24.359 24.932 24.4634L24.9731 24.5816C24.9731 24.5816 24.9731 24.5369 24.9936 24.457C25.0142 24.3772 25.0201 24.2687 25.023 24.1378C25.0259 24.0069 25.0436 23.8536 25.023 23.6908C25.0024 23.5279 25.023 23.3523 25.023 23.1799C25.023 23.0075 24.9966 22.8191 24.9819 22.6595Z" fill="#FCB95C"/>
<path d="M33.4021 6.2324C33.1466 6.70494 32.8529 7.26049 32.5387 7.86075C32.2244 8.461 31.9307 9.11553 31.6223 9.77644C31.314 10.4374 31.0496 11.1015 30.7853 11.7273C30.521 12.3531 30.3095 12.9533 30.1215 13.461C29.9336 13.9686 29.7955 14.4188 29.6927 14.7094C29.59 14.9999 29.5459 15.1883 29.5459 15.1883L29.772 14.7445C29.9071 14.4635 30.1039 14.058 30.3418 13.5727C30.5797 13.0874 30.8352 12.5095 31.126 11.9029C31.4168 11.2962 31.7134 10.6257 32.0071 9.98717C32.3008 9.3486 32.5945 8.67172 32.8706 8.05551C33.1466 7.43929 33.3933 6.8582 33.6136 6.3665L34.1246 5.15962L34.3097 4.69666L34.0512 5.11492L33.4021 6.2324Z" fill="#FCB95C"/>
</g>
<defs>
<clipPath id="clip0_1_963">
<rect width="37" height="89" fill="white"/>
</clipPath>
</defs>
</svg>
